<?xml version="1.0" encoding="UTF-8" standalone="no"?>
<!DOCTYPE svg PUBLIC "-//W3C//DTD SVG 1.1//EN" "http://www.w3.org/Graphics/SVG/1.1/DTD/svg11.dtd">
<svg xmlns="http://www.w3.org/2000/svg" version="1.1" viewBox="0.00 0.00 1773.00 1773.00">
<path fill="#ed0080" d="
  M 1087.06 75.16
  Q 1087.20 78.03 1088.80 80.43
  Q 1097.99 94.26 1106.11 111.35
  Q 1130.28 162.19 1141.71 216.02
  C 1142.85 221.41 1139.59 225.01 1134.34 225.18
  Q 1128.97 225.35 1127.11 218.89
  C 1121.51 199.49 1116.52 179.76 1110.34 161.96
  C 1098.29 127.24 1082.93 93.96 1058.58 65.96
  Q 1056.79 63.90 1056.02 62.47
  C 1053.88 58.55 1055.78 54.00 1059.69 52.24
  C 1062.85 50.81 1068.30 52.41 1071.43 53.33
  Q 1114.17 65.81 1147.29 93.44
  C 1180.62 121.25 1202.27 161.75 1210.23 204.77
  Q 1215.93 235.58 1214.28 270.51
  Q 1214.08 274.73 1214.26 279.58
  A 0.48 0.47 65.6 0 0 1215.08 279.89
  Q 1222.24 272.32 1233.66 262.44
  Q 1269.33 231.58 1312.57 219.34
  Q 1343.02 210.72 1373.55 210.48
  C 1412.43 210.18 1451.24 218.81 1487.65 232.60
  C 1492.74 234.53 1498.08 239.95 1493.33 245.14
  Q 1491.53 247.10 1488.81 247.81
  Q 1465.65 253.90 1441.95 261.97
  Q 1400.93 275.94 1363.93 298.88
  Q 1359.88 301.39 1335.83 318.63
  A 0.50 0.49 52.8 0 0 1335.74 319.34
  Q 1337.18 321.10 1339.13 321.87
  Q 1370.68 334.38 1393.27 353.75
  C 1431.38 386.42 1455.42 430.28 1472.28 477.98
  C 1474.14 483.24 1472.26 489.27 1465.97 489.44
  C 1463.78 489.49 1460.78 487.95 1458.93 486.68
  C 1433.07 468.86 1405.89 453.43 1376.78 442.23
  Q 1359.62 435.63 1341.47 431.82
  Q 1332.61 429.95 1320.98 427.57
  C 1317.20 426.80 1314.39 423.69 1314.86 419.49
  C 1315.47 414.04 1320.22 412.63 1325.07 413.17
  Q 1344.01 415.31 1364.18 421.62
  Q 1396.10 431.61 1424.19 447.07
  Q 1441.75 456.74 1442.21 456.97
  Q 1444.91 458.34 1447.25 458.66
  A 0.54 0.54 0.0 0 0 1447.84 457.98
  Q 1447.18 455.65 1445.80 452.66
  Q 1440.81 441.82 1435.78 432.21
  C 1415.27 393.05 1384.09 358.58 1343.31 340.28
  C 1315.21 327.67 1283.78 323.66 1252.95 326.91
  C 1242.81 327.97 1233.93 330.17 1223.27 332.74
  C 1212.01 335.45 1208.11 321.02 1219.33 318.25
  Q 1229.16 315.83 1232.53 315.05
  Q 1272.72 305.73 1313.70 314.62
  Q 1323.67 316.79 1325.12 317.08
  A 0.90 0.89 5.4 0 0 1326.20 316.19
  C 1326.15 311.95 1324.98 308.45 1329.00 305.23
  Q 1368.53 273.58 1418.13 254.62
  Q 1431.95 249.34 1451.31 242.77
  C 1453.12 242.16 1455.44 240.92 1457.33 239.88
  A 0.39 0.38 46.9 0 0 1457.35 239.22
  Q 1455.92 238.30 1453.12 237.44
  Q 1441.71 233.91 1426.48 230.80
  C 1387.41 222.82 1348.35 223.84 1310.66 235.81
  C 1275.79 246.90 1245.79 267.07 1222.67 295.17
  Q 1215.64 303.71 1208.30 314.49
  Q 1206.29 317.43 1202.03 317.37
  C 1195.35 317.28 1194.55 311.42 1195.27 306.01
  Q 1196.83 294.32 1197.82 284.87
  C 1201.57 248.93 1199.40 211.35 1187.32 176.93
  C 1170.63 129.38 1135.17 93.84 1087.71 74.70
  A 0.48 0.47 9.7 0 0 1087.06 75.16
  Z"
/>
<path fill="#ed0080" d="
  M 936.72 418.13
  A 0.35 0.35 0.0 0 0 937.11 418.59
  Q 939.29 418.17 941.27 416.99
  Q 961.08 405.17 979.48 397.72
  Q 1014.99 383.36 1049.07 376.37
  Q 1071.05 371.86 1084.50 369.50
  Q 1091.26 368.32 1097.95 367.71
  Q 1105.46 367.03 1106.89 373.76
  C 1108.29 380.33 1102.72 382.45 1097.37 383.14
  Q 1043.80 390.03 995.17 407.68
  Q 988.65 410.05 975.40 415.93
  C 958.98 423.21 941.95 433.44 929.14 446.16
  Q 926.75 448.53 920.98 455.31
  Q 917.91 458.91 916.09 459.60
  C 910.71 461.63 905.53 458.43 905.69 452.50
  C 905.78 449.34 907.90 444.42 909.11 441.41
  Q 914.89 426.90 921.17 415.17
  Q 941.22 377.68 973.04 351.46
  C 1000.94 328.47 1032.03 316.39 1067.40 311.43
  C 1069.69 311.11 1072.98 310.23 1074.96 309.67
  A 0.64 0.64 0.0 0 0 1075.37 308.80
  Q 1074.54 306.87 1073.06 305.69
  Q 1058.12 293.72 1041.88 284.88
  C 1011.73 268.48 977.53 256.41 943.66 248.38
  Q 928.72 244.84 908.08 240.43
  Q 906.00 239.98 902.91 239.14
  A 3.98 3.91 68.3 0 1 901.75 238.63
  Q 895.53 234.57 899.32 227.73
  Q 900.23 226.10 904.72 224.23
  Q 941.67 208.81 983.51 204.53
  C 1030.95 199.67 1078.09 208.74 1117.94 234.06
  C 1146.40 252.15 1170.84 278.48 1188.75 307.75
  C 1190.40 310.45 1191.96 314.69 1190.13 317.70
  C 1187.06 322.74 1180.62 322.60 1177.40 317.83
  Q 1169.37 305.92 1163.98 298.55
  Q 1145.64 273.43 1121.18 254.82
  C 1093.52 233.78 1060.52 221.73 1025.97 218.93
  Q 982.81 215.42 940.05 228.07
  Q 938.95 228.40 937.30 229.03
  A 0.64 0.64 0.0 0 0 937.13 230.13
  C 937.90 230.76 940.06 231.71 940.94 231.91
  Q 982.75 241.48 1021.33 257.97
  C 1049.02 269.80 1075.15 284.98 1096.14 306.09
  C 1099.04 309.01 1102.02 309.57 1106.45 309.82
  Q 1139.27 311.62 1168.33 319.67
  C 1173.31 321.05 1176.48 326.47 1173.36 331.21
  C 1171.08 334.65 1166.96 334.91 1163.25 334.01
  Q 1152.95 331.52 1140.77 329.20
  C 1092.40 320.00 1041.27 323.91 998.76 350.77
  Q 973.02 367.03 954.08 392.07
  Q 944.69 404.49 939.59 412.57
  Q 937.56 415.79 936.72 418.13
  Z"
/>
<path fill="#ed0080" d="
  M 832.03 405.78
  Q 832.82 413.03 833.66 417.04
  Q 851.40 501.27 852.29 505.48
  C 853.80 512.74 853.73 518.86 844.89 520.39
  C 836.81 521.79 834.43 516.09 832.97 509.27
  Q 825.53 474.63 811.72 409.02
  C 811.08 405.98 809.88 399.76 810.74 396.96
  Q 811.96 392.99 816.53 391.52
  Q 823.01 389.43 828.73 388.22
  Q 849.90 383.74 854.29 382.85
  A 0.47 0.46 54.3 0 0 854.43 381.99
  C 839.84 373.65 827.71 367.88 807.14 357.90
  Q 713.72 312.59 601.61 260.65
  Q 573.44 247.61 545.89 235.85
  A 1.72 1.72 0.0 0 0 543.93 236.30
  Q 496.98 290.11 426.13 371.63
  C 423.67 374.46 419.70 378.54 415.99 379.05
  C 410.39 379.83 403.84 375.56 405.66 369.34
  Q 406.54 366.32 409.23 363.23
  Q 494.81 264.88 534.23 219.74
  C 540.22 212.89 547.16 215.32 554.17 218.59
  Q 656.79 266.52 889.57 375.48
  C 894.46 377.77 900.37 386.71 893.54 391.07
  Q 891.00 392.69 887.46 393.46
  Q 864.11 398.54 832.49 405.14
  A 0.59 0.58 80.8 0 0 832.03 405.78
  Z"
/>
<path fill="#ed0080" d="
  M 515.10 291.25
  C 513.21 284.42 519.76 281.51 525.08 280.34
  Q 557.17 273.27 587.21 267.14
  C 593.48 265.86 604.83 267.72 599.21 277.22
  Q 596.35 282.07 590.79 283.25
  Q 531.05 295.88 527.86 296.45
  C 522.54 297.42 516.76 297.27 515.10 291.25
  Z"
/>
<path fill="#ed0080" d="
  M 669.36 315.28
  C 670.24 319.45 667.59 322.85 663.80 324.23
  Q 658.29 326.25 653.43 327.20
  Q 646.57 328.54 570.86 344.54
  Q 495.15 360.55 488.33 362.10
  Q 483.51 363.20 477.65 363.59
  C 473.62 363.85 469.83 361.82 468.94 357.65
  C 468.06 353.47 470.71 350.07 474.50 348.69
  Q 480.01 346.67 484.87 345.73
  Q 491.73 344.39 567.44 328.38
  Q 643.15 312.38 649.97 310.82
  Q 654.80 309.72 660.65 309.33
  C 664.68 309.07 668.47 311.10 669.36 315.28
  Z"
/>
<path fill="#ed0080" d="
  M 1041.99 690.20
  A 0.36 0.36 0.0 0 1 1041.48 689.88
  C 1040.45 655.59 1043.78 622.52 1049.95 588.70
  Q 1055.62 557.69 1061.72 532.91
  Q 1065.55 517.34 1072.17 499.90
  Q 1080.69 477.46 1091.45 452.44
  Q 1101.60 428.83 1116.66 406.65
  C 1135.03 379.61 1157.02 356.85 1184.93 340.44
  C 1187.88 338.70 1191.83 338.25 1194.58 340.66
  C 1198.88 344.42 1196.96 349.14 1193.95 353.10
  Q 1183.41 366.96 1177.94 375.42
  C 1143.09 429.38 1133.79 496.75 1133.56 559.53
  C 1133.51 573.34 1134.94 588.76 1135.62 604.62
  Q 1136.08 615.41 1136.93 622.82
  Q 1142.99 675.04 1153.95 727.13
  A 1.01 1.00 65.1 0 1 1153.60 728.11
  L 1141.56 737.72
  A 0.88 0.88 0.0 0 1 1140.16 737.24
  C 1134.28 713.86 1130.17 691.16 1126.02 665.27
  Q 1116.37 605.07 1117.50 544.76
  Q 1118.17 508.66 1124.72 472.36
  C 1129.80 444.26 1138.93 417.00 1150.65 391.06
  A 0.70 0.70 0.0 0 0 1149.83 390.10
  Q 1149.14 390.28 1148.62 390.88
  C 1121.39 422.30 1101.36 460.95 1088.18 500.91
  Q 1081.98 519.71 1076.54 541.51
  Q 1063.47 593.96 1058.11 644.00
  Q 1055.88 664.85 1056.63 682.70
  A 0.57 0.57 0.0 0 1 1056.31 683.23
  L 1041.99 690.20
  Z"
/>
<path fill="#ed0080" d="
  M 1288.38 588.26
  Q 1289.87 585.90 1290.78 582.78
  C 1296.70 562.64 1301.06 541.68 1302.17 521.01
  Q 1303.31 499.56 1300.14 478.09
  Q 1291.70 420.90 1250.65 381.68
  Q 1235.69 367.38 1218.04 357.22
  C 1213.55 354.64 1211.11 350.16 1214.54 345.29
  C 1217.23 341.46 1221.54 342.02 1225.74 344.15
  Q 1231.07 346.85 1231.39 347.07
  Q 1259.41 365.48 1277.65 388.46
  Q 1308.18 426.91 1315.63 476.63
  C 1323.31 527.88 1310.91 579.83 1291.27 627.11
  Q 1289.85 630.54 1288.57 631.86
  C 1285.23 635.30 1279.56 634.91 1277.14 630.88
  Q 1275.73 628.52 1275.46 624.50
  Q 1275.45 624.36 1273.37 603.15
  C 1271.29 581.85 1268.35 564.11 1263.87 539.90
  Q 1260.76 523.08 1258.47 515.05
  Q 1253.59 497.84 1246.50 475.96
  Q 1244.68 470.35 1242.35 465.09
  C 1236.35 451.52 1229.40 438.52 1220.16 429.33
  Q 1212.99 422.20 1203.26 418.80
  C 1197.98 416.95 1194.68 411.88 1198.27 406.87
  C 1201.61 402.21 1207.95 404.02 1212.56 405.95
  C 1233.49 414.70 1247.67 438.10 1255.98 458.24
  Q 1270.10 492.41 1276.54 524.96
  Q 1279.15 538.13 1283.54 561.50
  Q 1284.16 564.81 1286.25 581.30
  Q 1286.31 581.83 1287.92 588.19
  A 0.25 0.25 0.0 0 0 1288.38 588.26
  Z"
/>
<path fill="#ed0080" d="
  M 729.98 359.71
  C 731.44 366.64 724.61 369.32 719.25 370.44
  Q 706.23 373.16 582.45 399.35
  Q 458.66 425.54 445.65 428.33
  C 440.30 429.47 432.97 429.80 431.50 422.86
  C 430.03 415.93 436.87 413.26 442.23 412.14
  Q 455.25 409.42 579.03 383.22
  Q 702.82 357.03 715.83 354.25
  C 721.18 353.10 728.51 352.78 729.98 359.71
  Z"
/>
<path fill="#ed0080" d="
  M 353.22 506.92
  A 0.46 0.45 70.5 0 0 352.71 506.67
  Q 324.70 512.69 295.90 518.64
  Q 291.24 519.60 287.53 517.29
  C 281.28 513.40 283.81 507.30 287.76 502.76
  Q 362.53 416.73 380.29 396.54
  C 384.63 391.59 390.80 387.57 396.93 391.77
  C 403.09 395.98 399.23 402.32 395.44 406.69
  Q 345.20 464.65 325.21 487.47
  Q 323.30 489.65 320.14 491.57
  A 0.76 0.74 63.3 0 0 319.84 492.51
  Q 320.54 494.17 322.10 494.21
  Q 324.25 494.27 329.38 493.60
  C 340.24 492.18 350.89 488.47 361.73 487.97
  Q 367.09 487.72 369.26 492.66
  Q 371.45 497.65 372.79 504.42
  Q 387.50 578.62 389.18 587.16
  Q 425.67 771.69 426.00 773.39
  Q 431.06 799.61 442.82 856.95
  C 443.89 862.14 443.63 866.22 439.03 869.19
  Q 436.65 870.73 433.31 870.62
  Q 426.83 870.40 424.74 863.27
  Q 423.56 859.26 422.22 852.75
  C 405.14 769.59 390.09 690.89 371.71 597.25
  Q 361.70 546.27 353.67 508.31
  Q 353.51 507.53 353.22 506.92
  Z"
/>
<path fill="#ed0080" d="
  M 391.96 490.37
  C 389.50 485.24 395.94 478.99 400.28 478.07
  Q 600.26 435.71 779.33 397.83
  C 783.63 396.92 788.84 396.22 791.87 399.94
  Q 793.59 402.06 793.49 405.16
  Q 793.33 410.60 787.16 412.44
  Q 783.04 413.67 776.97 414.95
  Q 455.82 482.89 405.53 493.57
  C 401.06 494.52 394.28 495.21 391.96 490.37
  Z"
/>
<path fill="#ed0080" d="
  M 626.84 528.72
  A 3.72 3.67 -77.9 0 1 628.14 530.76
  Q 634.22 555.83 639.48 581.25
  Q 639.79 582.76 640.13 586.60
  C 640.73 593.44 633.61 595.10 628.03 596.29
  Q 598.28 602.67 576.66 607.18
  C 572.28 608.09 566.31 609.28 563.47 605.34
  Q 561.88 603.14 560.64 597.37
  Q 552.19 558.12 551.03 551.75
  C 549.36 542.59 552.11 540.12 560.94 538.19
  Q 583.18 533.33 611.30 527.39
  C 617.63 526.06 622.14 524.97 626.84 528.72
  Z
  M 619.02 579.82
  L 611.47 544.13
  A 0.41 0.40 76.8 0 0 610.98 543.82
  Q 590.11 549.03 572.00 556.02
  A 0.98 0.97 75.2 0 0 571.39 557.08
  Q 573.25 568.85 575.23 577.62
  C 576.06 581.32 577.44 584.83 578.44 588.23
  A 0.87 0.86 75.7 0 0 579.44 588.83
  L 618.54 580.56
  A 0.63 0.63 0.0 0 0 619.02 579.82
  Z"
/>
<path fill="#ed0080" d="
  M 854.89 543.20
  A 0.73 0.73 0.0 0 1 855.55 543.42
  C 859.80 547.90 861.84 551.29 863.22 557.78
  Q 869.44 586.96 878.01 627.25
  Q 878.99 631.89 877.84 636.52
  C 876.58 641.62 869.15 642.63 865.14 641.39
  C 861.94 640.41 859.46 634.27 858.76 630.97
  Q 849.54 587.86 843.41 558.58
  Q 843.06 556.88 842.48 551.51
  C 841.77 544.84 850.03 544.12 854.89 543.20
  Z"
/>
<path fill="#ed0080" d="
  M 520.37 582.82
  C 523.30 596.69 525.31 604.09 525.59 611.02
  C 525.86 617.88 518.09 619.46 512.29 620.76
  Q 510.52 621.15 487.87 625.95
  Q 465.21 630.75 463.44 631.10
  C 457.61 632.27 449.87 633.97 447.33 627.59
  C 444.78 621.14 443.62 613.56 440.68 599.70
  C 437.74 585.83 435.74 578.43 435.46 571.50
  C 435.19 564.64 442.96 563.06 448.75 561.76
  Q 450.52 561.37 473.18 556.57
  Q 495.83 551.77 497.61 551.42
  C 503.43 550.26 511.18 548.55 513.71 554.94
  C 516.27 561.38 517.43 568.96 520.37 582.82
  Z
  M 505.31 604.23
  Q 502.58 585.61 497.66 569.29
  A 1.01 1.00 -13.9 0 0 496.50 568.60
  Q 473.42 573.40 461.76 575.96
  C 456.09 577.20 456.24 581.57 457.28 586.45
  C 459.22 595.57 460.86 604.51 463.31 612.36
  A 1.31 1.30 -14.6 0 0 464.83 613.25
  L 504.94 604.77
  A 0.49 0.48 79.6 0 0 505.31 604.23
  Z"
/>
<path fill="#ed0080" d="
  M 813.14 613.00
  Q 822.80 658.69 823.81 663.74
  Q 824.37 666.53 824.58 670.53
  Q 824.84 675.30 820.43 677.49
  Q 817.42 678.99 811.50 680.26
  Q 762.39 690.78 746.50 694.01
  Q 744.67 694.38 739.26 694.93
  C 732.11 695.67 730.89 689.15 729.47 683.00
  Q 728.72 679.75 718.82 632.95
  Q 708.92 586.15 708.29 582.87
  C 707.10 576.68 705.58 570.22 712.41 568.00
  Q 717.58 566.31 719.41 565.91
  Q 735.24 562.43 784.41 552.17
  Q 790.33 550.93 793.69 551.08
  Q 798.61 551.30 800.31 555.77
  Q 801.73 559.51 802.35 562.28
  Q 803.47 567.31 813.14 613.00
  Z
  M 802.93 663.87
  L 783.37 571.39
  A 0.67 0.66 77.9 0 0 782.58 570.87
  L 729.08 582.19
  A 0.66 0.66 0.0 0 0 728.57 582.95
  C 729.37 587.49 729.96 592.15 730.92 596.68
  Q 743.76 657.18 746.81 671.49
  C 747.72 675.72 752.65 675.38 755.94 674.67
  Q 790.54 667.24 802.42 664.67
  A 0.68 0.67 -12.6 0 0 802.93 663.87
  Z"
/>
<path fill="#ed0080" d="
  M 749.81 628.38
  Q 746.94 629.66 742.95 629.27
  A 1.44 1.42 70.6 0 1 742.05 628.83
  C 740.30 627.03 738.96 622.03 741.60 620.19
  C 744.90 617.89 749.54 619.55 751.75 622.24
  A 1.25 1.24 35.0 0 1 751.97 623.46
  L 750.46 627.69
  A 1.23 1.23 0.0 0 1 749.81 628.38
  Z"
/>
<path fill="#ed0080" d="
  M 849.77 734.40
  C 848.89 726.78 856.09 723.68 862.45 722.94
  Q 872.05 721.82 880.50 721.22
  C 887.48 720.72 895.33 720.60 901.59 722.47
  C 917.37 727.19 926.67 740.80 931.32 756.18
  Q 939.28 782.45 932.12 811.33
  Q 928.51 825.87 921.37 836.10
  Q 912.14 849.33 896.21 851.17
  Q 888.42 852.07 876.25 853.15
  C 869.90 853.71 863.41 851.90 862.55 844.46
  Q 855.25 781.97 849.77 734.40
  Z
  M 881.24 742.20
  C 875.94 742.73 874.92 747.33 875.31 752.05
  Q 879.05 797.46 881.25 822.75
  C 881.57 826.41 882.87 830.78 887.24 831.03
  Q 889.53 831.16 895.44 830.36
  A 4.84 4.69 28.4 0 0 896.76 829.99
  C 901.59 827.87 904.48 824.02 906.75 819.34
  C 913.90 804.59 914.55 785.68 911.22 769.78
  C 909.12 759.73 903.88 746.85 893.67 742.66
  C 889.95 741.13 884.80 741.85 881.24 742.20
  Z"
/>
<path fill="#ed0080" d="
  M 1031.78 850.40
  C 1029.28 857.38 1018.13 857.62 1014.47 851.55
  Q 1013.33 849.65 1012.98 845.51
  C 1012.46 839.15 1012.78 834.72 1008.82 831.22
  Q 1007.25 829.84 1002.28 829.36
  Q 985.87 827.79 981.75 827.67
  Q 974.38 827.47 971.85 834.36
  Q 968.85 842.53 967.19 846.17
  C 964.71 851.63 956.79 851.43 952.79 848.17
  C 949.07 845.14 949.66 841.04 950.99 836.35
  Q 966.72 781.00 984.90 732.65
  C 989.64 720.04 1007.26 717.29 1014.34 729.28
  Q 1015.39 731.06 1016.41 736.51
  Q 1026.49 790.00 1031.85 843.65
  Q 1032.36 848.79 1031.78 850.40
  Z
  M 983.63 801.22
  A 5.16 5.16 0.0 0 0 988.19 807.87
  L 1001.73 808.84
  A 5.16 5.16 0.0 0 0 1007.20 802.91
  L 1002.56 772.66
  A 5.16 5.16 0.0 0 0 992.53 771.94
  L 983.63 801.22
  Z"
/>
<path fill="#ed0080" d="
  M 840.03 854.02
  C 835.77 859.89 827.90 860.22 823.38 854.40
  Q 805.29 831.07 798.14 823.11
  Q 793.14 817.54 786.37 820.61
  C 781.71 822.72 781.57 827.72 782.87 832.72
  Q 783.76 836.13 788.89 858.34
  C 791.50 869.63 773.20 874.22 769.93 862.30
  Q 747.76 781.45 741.12 755.88
  C 739.47 749.50 745.70 743.02 751.53 741.51
  Q 765.47 737.92 785.18 733.85
  C 810.92 728.54 826.78 750.77 828.57 773.51
  Q 829.36 783.47 825.52 791.85
  Q 820.46 802.90 819.75 804.47
  C 817.11 810.35 818.69 814.69 822.93 820.28
  Q 829.21 828.58 840.29 845.04
  C 841.99 847.56 841.96 851.37 840.03 854.02
  Z
  M 774.82 754.59
  C 770.50 755.79 766.66 759.51 766.88 764.22
  Q 766.93 765.26 768.06 770.04
  Q 772.40 788.35 772.55 789.07
  C 774.18 797.01 779.46 798.71 787.35 797.00
  Q 794.69 795.42 795.48 795.21
  C 802.15 793.41 806.00 787.77 807.04 780.83
  Q 808.77 769.31 802.24 760.06
  C 795.32 750.27 785.20 751.69 774.82 754.59
  Z"
/>
<path fill="#ed0080" d="
  M 1134.14 790.63
  C 1129.62 796.57 1124.11 801.88 1127.67 808.61
  C 1130.14 813.29 1132.22 817.13 1132.88 822.46
  Q 1134.92 838.91 1125.28 852.29
  C 1116.63 864.28 1103.09 870.75 1088.22 867.77
  Q 1082.66 866.66 1064.76 862.57
  C 1055.17 860.39 1052.32 856.84 1054.15 846.94
  Q 1073.20 743.82 1073.73 741.25
  C 1075.58 732.17 1083.09 732.48 1090.52 733.95
  Q 1106.37 737.09 1114.59 739.44
  Q 1120.65 741.18 1126.52 745.45
  Q 1140.14 755.36 1140.26 772.26
  Q 1140.33 782.52 1134.14 790.63
  Z
  M 1093.01 762.72
  L 1088.46 781.66
  A 6.50 6.50 0.0 0 0 1093.26 789.50
  L 1099.00 790.88
  A 15.41 14.48 -76.5 0 0 1116.67 779.27
  L 1117.06 777.66
  A 15.41 14.48 -76.5 0 0 1106.58 759.30
  L 1100.84 757.92
  A 6.50 6.50 0.0 0 0 1093.01 762.72
  Z
  M 1080.89 815.78
  L 1076.35 835.61
  A 8.13 8.13 0.0 0 0 1082.46 845.35
  L 1090.72 847.24
  A 16.93 16.33 -77.1 0 0 1110.42 834.38
  L 1111.03 831.71
  A 16.93 16.33 -77.1 0 0 1098.89 811.56
  L 1090.63 809.67
  A 8.13 8.13 0.0 0 0 1080.89 815.78
  Z"
/>
<path fill="#ed0080" d="
  M 1200.13 889.80
  C 1202.61 895.31 1197.78 902.03 1192.22 902.46
  Q 1189.71 902.65 1182.56 899.52
  Q 1170.87 894.41 1154.74 888.48
  C 1149.39 886.52 1143.86 884.74 1142.94 878.37
  Q 1142.62 876.12 1144.33 871.09
  Q 1177.08 774.74 1179.47 767.71
  Q 1182.11 759.99 1190.67 761.11
  C 1195.81 761.78 1202.19 765.43 1202.45 771.21
  Q 1202.53 772.95 1201.22 776.44
  Q 1178.30 837.41 1168.50 863.75
  Q 1165.19 872.66 1173.63 876.11
  Q 1175.92 877.05 1191.14 883.33
  C 1195.17 885.00 1198.52 886.22 1200.13 889.80
  Z"
/>
<path fill="#ed0080" d="
  M 721.01 887.59
  C 703.70 893.87 685.89 887.63 678.10 870.41
  Q 672.17 857.30 651.87 808.58
  C 643.37 788.19 658.05 770.91 676.29 764.29
  C 694.53 757.68 716.87 761.53 723.43 782.63
  Q 739.08 833.03 742.93 846.90
  C 747.99 865.11 738.32 881.32 721.01 887.59
  Z
  M 682.31 781.44
  C 675.90 783.76 670.67 789.26 671.48 796.33
  Q 671.63 797.68 675.60 807.96
  Q 694.38 856.62 697.12 863.37
  C 700.05 870.61 707.53 873.19 714.64 870.62
  C 721.74 868.04 725.83 861.27 723.44 853.82
  Q 721.22 846.89 704.45 797.50
  Q 700.91 787.06 700.16 785.93
  C 696.25 779.99 688.71 779.11 682.31 781.44
  Z"
/>
<path fill="#ed0080" d="
  M 619.89 869.88
  C 615.23 872.39 613.96 876.09 616.56 880.95
  Q 633.59 912.80 635.34 916.38
  C 639.67 925.24 628.19 933.81 620.61 928.47
  C 618.59 927.06 617.22 924.13 615.86 921.76
  Q 583.01 864.46 562.64 828.83
  C 558.93 822.33 561.99 817.25 567.69 813.95
  Q 582.94 805.12 610.95 791.72
  C 624.18 785.39 630.91 802.20 619.43 807.75
  Q 608.19 813.18 597.23 818.71
  C 592.29 821.21 587.47 825.65 590.50 831.81
  Q 591.57 833.98 598.05 846.14
  C 602.22 853.97 604.63 857.72 613.15 853.08
  Q 614.92 852.12 627.77 845.80
  C 639.52 840.02 646.94 856.46 635.34 862.11
  Q 624.42 867.44 619.89 869.88
  Z"
/>
<path fill="#ed0080" d="
  M 1271.38 926.58
  Q 1273.19 933.74 1266.31 937.73
  C 1262.96 939.68 1259.10 938.14 1255.51 936.03
  Q 1239.99 926.91 1223.01 918.26
  C 1214.67 914.02 1213.66 908.93 1217.57 900.80
  Q 1248.12 837.34 1264.74 803.75
  C 1267.71 797.73 1273.86 797.15 1279.55 799.96
  Q 1304.00 812.08 1325.46 825.04
  C 1334.50 830.50 1330.06 843.23 1319.78 841.66
  Q 1317.27 841.28 1312.91 838.70
  Q 1304.47 833.73 1294.68 828.33
  C 1289.43 825.44 1282.06 822.55 1278.35 829.06
  Q 1277.97 829.73 1268.86 847.13
  C 1264.41 855.63 1269.96 858.08 1277.14 861.94
  Q 1287.65 867.59 1289.97 869.24
  C 1293.85 872.01 1295.41 876.69 1292.76 881.07
  Q 1289.10 887.10 1281.49 884.81
  A 6.37 5.84 -19.2 0 1 1280.26 884.28
  Q 1270.55 878.73 1263.39 874.93
  C 1257.21 871.65 1254.08 874.80 1251.37 880.64
  Q 1249.27 885.18 1244.97 892.91
  C 1241.02 900.01 1238.60 905.70 1246.80 910.20
  Q 1258.58 916.66 1267.81 922.17
  Q 1269.31 923.07 1270.80 925.28
  A 4.27 4.24 -69.2 0 1 1271.38 926.58
  Z"
/>
<path fill="#ed0080" d="
  M 554.40 888.31
  C 563.61 887.75 567.13 899.90 559.49 905.01
  Q 550.39 911.10 544.45 915.20
  Q 537.60 919.92 542.47 926.78
  Q 564.71 958.10 565.27 958.98
  Q 568.65 964.30 565.62 969.14
  C 562.57 974.02 555.84 976.46 550.98 972.66
  Q 550.17 972.03 546.81 967.60
  Q 498.07 903.27 482.77 883.13
  Q 480.42 880.03 479.76 877.07
  C 478.90 873.23 481.98 869.11 485.01 866.77
  Q 497.59 857.09 523.62 840.07
  C 529.19 836.42 535.31 833.96 539.49 840.08
  C 542.65 844.69 540.70 850.63 536.43 853.41
  Q 522.23 862.66 514.98 867.70
  C 510.41 870.89 506.54 875.98 510.42 881.57
  Q 511.87 883.66 522.45 898.52
  C 526.62 904.36 531.32 902.66 536.67 898.71
  Q 537.11 898.39 546.38 892.11
  Q 551.77 888.47 554.40 888.31
  Z"
/>
<path fill="#ed0080" d="
  M 1773.00 1019.38
  L 1773.00 1020.74
  Q 1765.22 1034.34 1756.08 1047.34
  C 1739.97 1070.25 1720.16 1090.32 1693.46 1100.18
  C 1678.90 1105.56 1658.72 1105.79 1653.00 1087.78
  C 1652.12 1084.99 1651.63 1080.41 1651.26 1077.95
  A 0.33 0.33 0.0 0 0 1650.67 1077.80
  Q 1637.21 1095.73 1619.05 1107.48
  C 1607.80 1114.75 1593.46 1119.05 1579.98 1115.29
  Q 1577.70 1114.66 1573.81 1112.19
  C 1571.68 1110.83 1568.99 1107.37 1566.21 1106.18
  Q 1559.65 1103.38 1552.99 1107.75
  Q 1551.54 1108.70 1541.12 1116.08
  Q 1539.21 1117.43 1531.11 1121.55
  C 1519.46 1127.48 1505.96 1130.58 1493.73 1126.99
  C 1479.73 1122.87 1471.71 1111.75 1469.51 1097.62
  A 0.27 0.26 59.1 0 0 1469.04 1097.50
  Q 1459.36 1110.26 1448.01 1120.90
  C 1439.16 1129.18 1428.84 1135.78 1417.83 1139.56
  C 1401.27 1145.23 1380.43 1144.38 1376.26 1123.25
  Q 1375.76 1120.72 1375.42 1118.01
  A 0.27 0.27 0.0 0 0 1374.94 1117.88
  C 1361.20 1135.54 1339.85 1154.33 1316.55 1156.22
  Q 1303.77 1157.26 1295.74 1151.84
  C 1286.59 1145.67 1284.82 1134.25 1285.94 1123.50
  A 0.37 0.37 0.0 0 0 1285.28 1123.23
  Q 1272.37 1139.81 1256.35 1152.82
  Q 1250.06 1157.92 1243.56 1161.27
  C 1222.97 1171.85 1190.62 1170.88 1196.76 1137.72
  Q 1199.00 1125.65 1205.71 1106.72
  Q 1207.23 1102.45 1222.28 1066.30
  Q 1224.30 1061.42 1225.74 1057.26
  C 1229.77 1045.59 1215.79 1043.83 1207.94 1045.45
  C 1194.28 1048.27 1182.49 1056.60 1173.00 1066.73
  Q 1149.99 1091.30 1139.14 1121.40
  Q 1133.16 1137.97 1120.72 1172.97
  Q 1118.25 1179.94 1112.28 1182.16
  Q 1103.69 1185.38 1097.38 1182.46
  Q 1090.86 1179.45 1093.65 1172.42
  Q 1094.67 1169.87 1099.70 1155.91
  A 0.26 0.26 0.0 0 0 1099.27 1155.64
  Q 1080.64 1174.90 1057.67 1187.06
  C 1038.43 1197.24 1014.49 1202.87 993.30 1198.30
  C 984.09 1196.31 973.97 1191.11 968.71 1183.37
  Q 964.70 1177.46 963.14 1170.36
  A 0.44 0.44 0.0 0 0 962.36 1170.19
  C 952.35 1183.81 940.46 1196.20 926.59 1205.53
  C 911.20 1215.89 886.32 1223.75 871.46 1209.27
  Q 867.44 1205.35 866.14 1204.87
  C 861.03 1202.96 855.14 1205.01 850.94 1208.20
  C 832.28 1222.40 807.91 1236.55 784.03 1227.23
  C 771.00 1222.15 763.58 1210.93 762.07 1197.18
  A 0.44 0.43 -29.7 0 0 761.29 1196.97
  C 744.11 1219.61 719.13 1243.54 688.80 1244.72
  C 677.48 1245.15 666.66 1240.09 662.86 1228.94
  Q 660.08 1220.76 660.61 1211.27
  A 0.31 0.31 0.0 0 0 660.07 1211.05
  Q 642.48 1230.20 620.89 1244.11
  C 599.97 1257.57 577.97 1264.72 552.77 1264.96
  Q 541.87 1265.06 531.94 1261.85
  C 525.74 1259.85 514.81 1253.19 517.93 1245.00
  C 520.45 1238.38 529.14 1235.65 535.44 1237.06
  C 538.56 1237.76 541.69 1240.64 544.21 1241.80
  C 561.95 1249.98 584.00 1240.45 592.59 1223.51
  C 598.32 1212.20 596.33 1198.88 592.85 1187.14
  C 589.93 1177.28 585.56 1166.82 582.77 1158.06
  A 3.07 3.06 -6.0 0 0 580.13 1155.93
  Q 573.81 1155.34 570.36 1160.39
  Q 560.75 1174.42 553.00 1186.13
  A 1.95 1.88 66.8 0 0 552.69 1186.95
  Q 552.38 1189.19 551.83 1190.04
  Q 534.06 1217.11 511.76 1239.24
  C 485.01 1265.78 448.57 1287.36 409.53 1284.45
  C 396.20 1283.45 381.43 1278.13 373.70 1266.58
  C 367.02 1256.60 365.93 1242.90 367.84 1231.02
  C 371.65 1207.37 381.78 1186.98 396.37 1168.08
  C 417.07 1141.27 449.52 1118.57 484.98 1121.99
  C 491.96 1122.67 499.80 1125.44 504.84 1130.76
  C 513.13 1139.51 511.70 1151.45 506.85 1162.12
  C 493.10 1192.39 459.77 1210.79 429.79 1221.28
  Q 419.04 1225.04 412.69 1226.68
  Q 407.79 1227.94 404.68 1230.07
  C 400.54 1232.91 395.37 1236.93 395.29 1242.01
  Q 395.25 1244.59 396.65 1248.94
  C 401.33 1263.40 415.40 1267.29 429.32 1265.81
  C 450.82 1263.52 470.74 1252.62 487.18 1238.66
  Q 507.05 1221.81 522.61 1200.59
  Q 523.19 1199.80 523.66 1198.26
  A 3.84 3.67 -21.1 0 1 524.08 1197.37
  Q 578.42 1114.24 591.71 1093.98
  C 596.56 1086.58 614.14 1086.27 617.03 1095.94
  Q 617.73 1098.26 616.28 1102.88
  C 613.09 1113.05 610.57 1124.27 609.91 1134.75
  C 609.32 1144.12 611.49 1153.21 614.51 1163.51
  C 619.77 1181.42 626.06 1198.11 620.94 1215.24
  Q 620.08 1218.14 620.50 1219.13
  C 622.01 1222.62 626.97 1220.29 629.00 1218.49
  Q 639.67 1209.01 650.92 1195.17
  Q 661.24 1182.47 667.97 1172.66
  A 3.31 3.12 -20.1 0 0 668.41 1171.78
  Q 679.41 1138.72 695.04 1105.30
  Q 698.53 1097.84 701.38 1095.33
  C 707.10 1090.28 716.92 1088.20 722.71 1093.55
  C 726.98 1097.50 725.13 1102.34 722.70 1107.43
  Q 711.04 1131.86 701.12 1155.79
  C 694.39 1172.02 689.02 1190.13 687.48 1207.74
  C 686.29 1221.26 692.56 1229.71 706.80 1223.77
  C 718.76 1218.78 729.50 1208.13 738.21 1198.19
  Q 753.51 1180.72 765.84 1160.43
  A 3.99 3.59 -23.6 0 0 766.19 1159.66
  Q 779.00 1119.84 808.51 1092.79
  C 823.13 1079.39 842.92 1072.54 862.98 1071.66
  Q 872.50 1071.24 880.56 1074.36
  Q 887.12 1076.89 888.80 1076.89
  C 895.45 1076.87 899.33 1072.08 901.48 1066.51
  Q 913.46 1035.51 935.79 976.58
  Q 938.77 968.72 940.91 966.60
  C 946.81 960.76 956.45 957.65 963.70 962.40
  C 968.07 965.27 968.26 968.81 966.41 973.73
  Q 962.18 984.96 959.42 992.43
  C 950.03 1017.82 931.35 1063.74 919.59 1096.71
  C 908.86 1126.76 898.86 1153.48 891.12 1183.12
  C 888.85 1191.80 891.34 1200.58 902.41 1198.58
  C 914.01 1196.48 924.19 1188.14 932.13 1179.62
  C 944.79 1166.05 954.74 1152.21 964.26 1137.40
  A 5.50 5.46 70.2 0 0 964.93 1135.96
  C 974.98 1102.51 997.91 1070.54 1029.17 1053.70
  C 1043.42 1046.02 1060.82 1041.98 1076.73 1044.98
  C 1095.05 1048.43 1101.43 1063.72 1094.62 1080.41
  C 1082.52 1110.08 1051.50 1128.05 1022.80 1138.55
  Q 1012.75 1142.22 1005.95 1144.02
  C 998.95 1145.87 993.76 1149.16 989.80 1154.54
  C 988.56 1156.24 988.22 1158.16 988.54 1160.45
  C 991.98 1185.21 1017.77 1184.62 1036.28 1178.49
  C 1060.11 1170.60 1080.35 1153.36 1096.87 1134.11
  Q 1108.64 1120.41 1116.50 1108.69
  A 9.63 9.47 -18.8 0 0 1117.57 1106.56
  Q 1128.51 1076.25 1140.98 1042.03
  Q 1141.90 1039.52 1144.83 1037.05
  C 1150.86 1031.97 1163.05 1029.15 1168.84 1036.11
  C 1172.13 1040.06 1177.16 1037.85 1180.55 1035.68
  Q 1197.97 1024.55 1218.98 1022.02
  C 1236.38 1019.92 1257.05 1026.80 1253.32 1048.81
  Q 1252.27 1055.00 1249.08 1062.84
  Q 1234.08 1099.71 1233.63 1100.88
  C 1228.55 1113.98 1224.43 1125.56 1222.33 1138.72
  Q 1222.21 1139.47 1222.78 1143.76
  A 2.81 2.66 29.3 0 0 1223.06 1144.66
  C 1228.41 1155.26 1246.84 1141.58 1252.61 1135.76
  Q 1267.78 1120.47 1275.14 1110.37
  Q 1280.74 1102.71 1295.17 1082.05
  A 5.03 4.87 73.4 0 0 1295.79 1080.86
  Q 1302.25 1062.94 1325.95 998.44
  Q 1326.69 996.44 1326.74 994.55
  A 1.67 1.66 4.8 0 0 1325.29 992.85
  Q 1323.33 992.58 1321.50 992.77
  Q 1310.59 993.92 1302.01 994.64
  C 1297.77 995.00 1292.06 993.98 1290.09 989.92
  C 1288.30 986.26 1290.06 982.30 1293.01 979.73
  C 1295.76 977.34 1299.11 976.02 1302.69 975.53
  Q 1305.73 975.11 1328.82 972.13
  C 1334.46 971.41 1336.51 969.65 1338.49 964.20
  Q 1353.61 922.71 1355.24 918.50
  C 1358.16 910.94 1367.52 907.89 1374.77 909.76
  Q 1382.43 911.74 1381.16 919.82
  A 3.04 2.63 -33.7 0 1 1380.98 920.47
  Q 1371.58 944.30 1364.68 963.45
  C 1363.31 967.27 1366.64 968.12 1369.50 967.71
  Q 1370.58 967.56 1387.50 965.41
  Q 1388.89 965.24 1391.71 965.57
  C 1400.67 966.64 1401.16 975.95 1395.09 980.92
  C 1390.29 984.85 1384.82 985.30 1377.64 986.04
  Q 1364.68 987.37 1361.74 987.94
  C 1356.04 989.04 1353.60 992.19 1351.50 998.22
  Q 1348.67 1006.33 1331.69 1051.64
  Q 1325.37 1068.51 1322.03 1079.29
  C 1318.07 1092.06 1314.49 1104.24 1311.91 1116.69
  Q 1310.01 1125.89 1312.42 1132.99
  C 1314.51 1139.15 1323.68 1138.07 1328.62 1136.35
  Q 1334.68 1134.25 1339.72 1130.45
  Q 1351.19 1121.79 1360.67 1109.65
  Q 1370.52 1097.01 1379.98 1082.44
  A 3.73 3.57 72.1 0 0 1380.43 1081.51
  C 1382.75 1074.46 1384.81 1066.60 1387.64 1058.76
  Q 1395.96 1035.73 1407.44 1010.56
  Q 1410.70 1003.40 1413.45 1001.06
  C 1418.23 996.97 1424.29 995.34 1430.21 997.73
  C 1436.27 1000.17 1436.30 1005.82 1433.93 1010.88
  Q 1422.67 1034.98 1413.87 1056.38
  Q 1409.13 1067.93 1406.53 1077.08
  C 1403.06 1089.24 1400.20 1100.58 1400.31 1112.46
  C 1400.40 1121.63 1406.36 1126.52 1415.42 1123.83
  C 1423.47 1121.43 1431.03 1115.55 1437.38 1109.36
  C 1451.00 1096.11 1462.27 1080.77 1472.22 1064.64
  A 12.67 12.23 -21.7 0 0 1473.55 1061.70
  Q 1482.29 1033.26 1500.60 1011.07
  Q 1512.82 996.25 1525.90 988.71
  Q 1540.15 980.48 1557.99 978.33
  C 1566.55 977.30 1574.94 978.65 1583.22 980.70
  C 1588.56 982.02 1593.92 981.53 1598.28 979.02
  Q 1602.62 976.51 1603.93 976.00
  C 1613.31 972.28 1626.01 975.75 1620.23 988.72
  Q 1609.92 1011.84 1602.16 1031.64
  Q 1595.93 1047.52 1591.99 1062.49
  Q 1588.32 1076.42 1587.43 1084.25
  Q 1587.17 1086.57 1587.73 1089.72
  C 1590.01 1102.57 1602.24 1100.10 1610.31 1095.28
  Q 1619.64 1089.72 1627.59 1081.06
  Q 1643.49 1063.75 1656.16 1042.85
  A 5.35 5.06 72.4 0 0 1656.61 1041.92
  Q 1660.19 1031.94 1718.83 870.08
  C 1721.55 862.56 1735.77 858.12 1741.63 864.67
  Q 1744.76 868.18 1742.86 873.37
  Q 1711.89 957.73 1688.47 1023.69
  Q 1683.19 1038.57 1679.58 1053.80
  Q 1677.81 1061.28 1677.42 1069.00
  C 1676.38 1089.58 1693.08 1084.46 1704.08 1078.12
  Q 1715.14 1071.75 1725.44 1060.45
  C 1737.45 1047.29 1747.16 1032.72 1756.72 1017.75
  Q 1757.85 1015.98 1760.65 1015.24
  Q 1769.58 1012.86 1773.00 1019.38
  Z
  M 1500.49 1106.32
  C 1508.19 1114.09 1521.25 1109.55 1529.22 1103.94
  C 1554.29 1086.28 1569.66 1057.13 1574.68 1026.76
  C 1575.89 1019.42 1576.54 1010.20 1572.73 1004.45
  C 1563.25 990.15 1539.71 1000.10 1530.75 1008.51
  C 1520.67 1017.99 1513.11 1029.60 1507.36 1042.01
  C 1501.16 1055.39 1496.44 1068.67 1495.23 1083.00
  C 1494.61 1090.46 1495.18 1100.98 1500.49 1106.32
  Z
  M 999.38 1123.44
  C 1002.02 1126.82 1009.00 1125.27 1012.73 1124.05
  C 1036.40 1116.31 1063.88 1103.16 1073.59 1078.85
  C 1075.15 1074.94 1075.70 1069.60 1072.98 1066.10
  C 1070.26 1062.60 1064.94 1061.84 1060.77 1062.40
  C 1034.83 1065.86 1015.35 1089.30 1002.05 1110.35
  C 999.96 1113.67 996.75 1120.06 999.38 1123.44
  Z
  M 878.28 1109.42
  C 877.81 1105.01 876.97 1100.43 874.06 1097.92
  Q 862.56 1088.01 847.93 1092.73
  C 832.20 1097.80 820.87 1108.42 811.56 1122.91
  Q 796.45 1146.41 790.74 1174.25
  Q 789.53 1180.12 789.41 1185.99
  C 789.14 1198.68 793.85 1213.22 809.80 1211.12
  C 818.14 1210.02 826.26 1204.96 832.76 1199.79
  Q 857.07 1180.44 869.10 1152.70
  Q 874.96 1139.18 878.09 1118.23
  Q 878.75 1113.86 878.28 1109.42
  Z
  M 406.92 1204.73
  C 409.68 1208.32 417.05 1206.74 420.99 1205.48
  C 446.01 1197.49 475.10 1183.83 485.52 1158.27
  C 487.19 1154.16 487.82 1148.53 484.97 1144.82
  C 482.13 1141.11 476.53 1140.27 472.12 1140.82
  C 444.74 1144.28 424.02 1168.85 409.84 1190.95
  C 407.60 1194.43 404.17 1201.15 406.92 1204.73
  Z"
/>
<path fill="#ed0080" d="
  M 423.98 919.02
  C 428.89 917.52 432.62 918.78 437.22 921.55
  Q 485.76 950.67 530.41 983.60
  C 538.95 989.89 530.72 1002.11 521.79 1000.43
  C 518.52 999.81 514.59 996.05 511.07 993.50
  C 505.39 989.39 501.43 990.79 496.41 995.46
  Q 485.31 1005.77 485.19 1005.88
  C 478.83 1011.96 476.00 1014.91 480.04 1022.98
  Q 483.78 1030.47 484.90 1033.20
  C 488.43 1041.84 473.75 1051.46 467.82 1041.94
  Q 441.87 1000.24 415.24 948.35
  Q 411.72 941.47 411.32 938.65
  C 410.04 929.66 415.47 921.64 423.98 919.02
  Z
  M 462.89 990.21
  A 5.36 5.36 0.0 0 0 471.22 991.37
  L 481.36 981.67
  A 5.36 5.36 0.0 0 0 480.58 973.30
  L 455.02 956.72
  A 5.36 5.36 0.0 0 0 447.48 963.93
  L 462.89 990.21
  Z"
/>
<path fill="#ed0080" d="
  M 1439.40 971.22
  Q 1432.15 969.56 1426.39 965.37
  C 1422.58 962.60 1423.06 958.48 1425.30 954.91
  Q 1429.89 947.56 1439.26 946.00
  C 1446.40 944.81 1455.90 948.01 1456.37 956.35
  C 1456.68 961.83 1444.91 968.59 1440.37 971.09
  A 1.37 1.37 0.0 0 1 1439.40 971.22
  Z"
/>
<path fill="#ed0080" d="
  M 0.00 1322.37
  L 0.00 1319.30
  C 2.73 1276.31 48.05 1248.56 86.21 1242.91
  Q 98.30 1241.12 109.74 1243.00
  C 129.08 1246.17 144.19 1259.12 141.28 1280.28
  C 139.45 1293.61 129.42 1304.83 117.59 1311.10
  C 110.22 1315.01 92.49 1321.65 85.17 1315.35
  C 80.28 1311.15 83.03 1304.83 87.50 1301.79
  Q 91.32 1299.19 95.06 1298.81
  C 106.05 1297.69 115.23 1291.80 116.37 1280.11
  C 116.93 1274.46 113.68 1268.62 108.59 1265.69
  C 101.02 1261.34 91.64 1261.45 83.28 1263.00
  Q 56.02 1268.04 38.16 1287.77
  Q 21.75 1305.89 27.94 1329.89
  Q 29.10 1334.40 32.67 1339.34
  C 41.50 1351.57 57.97 1357.84 72.77 1358.75
  C 103.69 1360.67 133.87 1345.81 153.07 1322.06
  C 166.71 1305.18 175.81 1284.98 182.41 1264.68
  C 190.24 1240.61 196.90 1209.39 201.63 1190.13
  C 213.25 1142.87 228.71 1092.44 266.09 1057.72
  Q 272.81 1051.47 275.62 1050.23
  C 280.48 1048.10 291.63 1047.37 293.04 1055.14
  C 293.71 1058.85 291.63 1061.69 288.68 1064.17
  C 257.57 1090.43 241.91 1130.50 231.81 1170.03
  C 223.63 1202.07 267.03 1184.60 279.06 1179.30
  Q 306.07 1167.38 329.74 1150.73
  C 346.89 1138.67 362.22 1122.85 369.95 1103.21
  C 374.75 1091.01 376.12 1075.68 371.27 1063.67
  C 358.65 1032.36 315.25 1028.15 286.49 1029.50
  C 232.78 1032.03 179.63 1045.67 135.68 1077.64
  C 114.08 1093.34 94.97 1116.53 86.44 1141.92
  C 81.51 1156.61 80.07 1175.64 91.33 1187.90
  C 101.38 1198.84 115.72 1200.86 129.61 1196.26
  Q 145.87 1190.88 154.41 1173.91
  Q 154.83 1173.08 156.17 1168.16
  C 157.58 1162.98 160.16 1160.30 165.16 1158.50
  C 170.61 1156.53 179.26 1157.03 181.24 1163.64
  Q 181.90 1165.83 180.81 1169.85
  Q 177.38 1182.60 168.28 1192.78
  C 151.96 1211.05 127.49 1219.55 103.25 1217.29
  C 82.65 1215.36 64.82 1202.17 59.17 1182.10
  C 54.20 1164.43 58.66 1144.36 66.71 1127.69
  C 91.91 1075.48 147.04 1041.06 201.03 1025.06
  Q 255.24 1009.00 311.26 1010.81
  Q 318.38 1011.04 333.68 1013.61
  Q 354.65 1017.14 371.36 1027.57
  C 396.43 1043.21 403.53 1068.25 396.58 1096.02
  C 388.20 1129.54 360.89 1153.70 332.93 1171.51
  C 323.92 1177.24 315.14 1184.42 309.83 1193.35
  Q 306.36 1199.20 309.38 1206.86
  Q 312.06 1213.66 314.34 1219.67
  C 317.54 1228.10 317.66 1236.65 316.96 1247.24
  Q 316.35 1256.58 312.81 1272.09
  Q 309.84 1285.06 303.84 1308.86
  C 302.51 1314.09 299.81 1325.91 301.58 1331.39
  C 304.11 1339.21 311.67 1342.81 319.50 1342.99
  Q 337.58 1343.41 349.02 1332.29
  Q 353.05 1328.38 354.97 1321.38
  A 5.34 5.20 -18.9 0 1 355.91 1319.52
  Q 361.75 1312.20 370.85 1313.14
  C 376.16 1313.68 379.93 1317.60 378.49 1323.02
  C 375.49 1334.32 367.24 1343.71 357.57 1349.82
  Q 334.67 1364.32 307.68 1361.36
  C 289.85 1359.40 274.99 1347.32 276.14 1328.12
  Q 276.47 1322.53 279.28 1311.26
  C 285.07 1287.96 289.92 1271.15 291.78 1250.76
  Q 292.25 1245.70 291.61 1240.74
  C 288.80 1218.98 272.16 1213.35 253.00 1214.30
  C 222.96 1215.80 213.70 1243.32 206.51 1267.28
  C 200.09 1288.63 189.44 1311.65 175.16 1329.69
  C 156.35 1353.46 131.15 1367.92 101.83 1375.03
  C 73.90 1381.80 37.90 1379.36 16.26 1358.39
  Q 1.48 1344.06 0.00 1322.37
  Z"
/>
<ellipse fill="#ed0080" cx="0.00" cy="0.00" transform="translate(727.28,1045.67) rotate(-10.0)" rx="15.90" ry="12.27"/>
<path fill="#ed0080" d="
  M 1358.86 1445.05
  A 0.26 0.25 -17.1 0 0 1358.42 1444.82
  C 1345.10 1459.70 1325.48 1472.92 1305.22 1473.87
  C 1285.62 1474.80 1277.91 1460.07 1279.22 1442.60
  A 0.36 0.36 0.0 0 0 1278.58 1442.35
  Q 1268.53 1455.33 1256.19 1466.93
  C 1242.89 1479.42 1227.69 1488.86 1209.32 1487.97
  C 1193.09 1487.19 1187.34 1475.18 1189.72 1460.16
  Q 1191.12 1451.35 1195.65 1437.35
  C 1201.28 1419.91 1210.22 1399.91 1216.25 1385.02
  C 1218.35 1379.84 1222.89 1370.87 1215.27 1367.45
  C 1203.28 1362.07 1186.42 1370.87 1177.03 1378.60
  C 1163.70 1389.55 1153.25 1403.14 1144.60 1417.78
  Q 1136.86 1430.89 1131.93 1444.94
  Q 1119.94 1479.13 1113.16 1497.91
  C 1110.37 1505.64 1100.09 1508.64 1092.64 1507.11
  C 1089.30 1506.42 1086.40 1504.49 1085.88 1500.87
  Q 1085.68 1499.45 1086.79 1496.34
  Q 1089.09 1489.93 1089.48 1488.91
  A 0.21 0.21 0.0 0 0 1089.13 1488.69
  C 1078.29 1500.65 1065.78 1510.89 1051.24 1516.97
  C 1040.06 1521.64 1024.08 1523.45 1014.21 1515.11
  Q 1009.56 1511.18 1008.56 1510.75
  C 1000.74 1507.38 994.65 1511.61 988.57 1516.37
  C 979.94 1523.14 970.33 1528.48 959.87 1532.32
  Q 949.44 1536.14 938.54 1535.50
  C 918.84 1534.34 905.75 1519.67 904.97 1500.04
  A 0.38 0.38 0.0 0 0 904.30 1499.81
  C 880.92 1527.69 848.45 1553.56 811.43 1558.89
  C 788.40 1562.21 758.90 1557.92 753.44 1530.08
  A 0.30 0.30 0.0 0 0 752.91 1529.96
  Q 730.91 1558.74 698.32 1574.08
  C 681.49 1582.00 653.56 1586.10 647.51 1562.24
  C 642.77 1543.59 649.49 1520.60 656.44 1501.97
  Q 677.02 1446.85 721.20 1326.49
  C 725.66 1314.33 754.22 1312.66 747.73 1329.97
  Q 713.12 1422.32 695.29 1472.28
  Q 692.55 1479.98 687.82 1492.00
  C 682.71 1504.99 677.63 1521.09 675.55 1535.02
  C 674.69 1540.77 674.11 1548.60 676.74 1553.69
  C 681.68 1563.29 696.06 1556.88 703.10 1553.09
  Q 714.75 1546.83 726.69 1534.41
  Q 740.40 1520.14 754.89 1497.33
  A 4.79 4.50 -22.0 0 0 755.45 1496.12
  Q 768.40 1453.53 801.86 1424.34
  C 817.57 1410.63 836.49 1401.28 857.72 1399.99
  Q 868.41 1399.34 877.41 1403.06
  C 889.33 1407.99 893.07 1420.04 889.39 1431.95
  C 882.95 1452.86 865.87 1469.41 847.36 1480.92
  C 831.88 1490.53 814.12 1498.30 796.42 1503.51
  C 790.57 1505.23 786.71 1507.88 782.73 1512.00
  C 778.22 1516.68 779.12 1521.17 781.33 1526.98
  C 787.32 1542.76 805.41 1543.23 819.27 1540.01
  C 844.12 1534.23 865.57 1517.76 882.97 1498.95
  Q 897.21 1483.57 909.46 1465.68
  A 8.18 8.14 -18.3 0 0 910.40 1463.82
  Q 913.65 1454.74 916.39 1448.63
  Q 924.80 1429.86 937.22 1414.43
  Q 950.90 1397.43 964.71 1389.20
  C 980.08 1380.04 1001.05 1374.08 1019.19 1377.61
  Q 1028.95 1379.50 1029.97 1379.58
  C 1034.66 1379.97 1039.58 1378.29 1044.08 1375.58
  C 1049.09 1372.57 1054.08 1370.99 1059.04 1371.92
  Q 1066.01 1373.22 1066.85 1379.08
  Q 1067.29 1382.08 1064.28 1388.53
  Q 1060.23 1397.24 1054.14 1411.88
  Q 1043.59 1437.28 1039.90 1448.63
  Q 1033.85 1467.26 1030.67 1484.99
  C 1029.97 1488.90 1030.54 1494.88 1032.90 1498.21
  C 1040.84 1509.44 1059.52 1495.29 1066.07 1489.32
  Q 1074.80 1481.37 1082.34 1471.81
  Q 1097.06 1453.15 1109.41 1432.81
  A 8.13 7.97 71.0 0 0 1110.09 1431.38
  Q 1119.64 1404.87 1134.05 1364.87
  Q 1135.46 1360.95 1140.50 1357.74
  Q 1147.97 1352.99 1156.50 1354.79
  C 1158.76 1355.27 1160.29 1356.22 1162.26 1358.45
  C 1165.43 1362.03 1170.70 1359.34 1173.87 1357.26
  Q 1191.89 1345.47 1213.01 1342.65
  C 1230.67 1340.30 1250.72 1347.44 1246.37 1369.48
  Q 1245.09 1375.97 1242.10 1383.37
  Q 1234.59 1402.02 1226.80 1421.28
  Q 1221.98 1433.20 1218.72 1444.70
  C 1216.88 1451.19 1214.89 1458.08 1215.86 1463.73
  C 1217.27 1472.09 1227.18 1468.67 1232.16 1466.13
  Q 1237.63 1463.33 1243.13 1458.12
  Q 1259.00 1443.07 1269.87 1427.61
  Q 1281.27 1411.39 1286.53 1403.65
  A 5.54 5.52 71.5 0 0 1287.19 1402.32
  Q 1299.58 1365.59 1313.71 1336.17
  Q 1316.26 1330.85 1321.98 1327.97
  C 1326.98 1325.45 1334.47 1325.32 1338.13 1329.66
  C 1340.98 1333.04 1339.76 1337.14 1337.89 1341.18
  Q 1326.08 1366.60 1316.85 1389.55
  Q 1313.63 1397.58 1311.42 1404.91
  C 1308.17 1415.68 1305.28 1427.11 1304.40 1438.17
  C 1304.09 1442.08 1304.14 1447.06 1305.99 1450.56
  C 1312.69 1463.21 1331.50 1448.78 1337.86 1443.10
  Q 1344.91 1436.81 1352.22 1428.15
  Q 1366.33 1411.45 1377.73 1392.15
  A 5.62 5.31 -21.5 0 0 1378.19 1391.17
  L 1402.86 1322.04
  A 1.80 1.59 75.1 0 1 1403.08 1321.60
  Q 1410.32 1310.70 1424.00 1312.54
  Q 1425.19 1312.70 1427.49 1313.91
  C 1429.73 1315.10 1430.31 1317.79 1433.54 1317.97
  C 1436.27 1318.13 1438.95 1316.80 1441.37 1315.18
  C 1453.87 1306.82 1470.55 1300.55 1485.99 1300.50
  C 1501.09 1300.44 1514.69 1308.39 1512.14 1325.51
  Q 1511.18 1331.99 1507.99 1339.99
  Q 1492.91 1377.80 1492.88 1377.87
  C 1489.20 1387.50 1478.23 1415.76 1483.28 1422.25
  C 1489.06 1429.65 1503.61 1418.69 1508.34 1414.32
  C 1522.26 1401.47 1534.12 1386.14 1544.45 1370.04
  A 5.09 5.00 71.1 0 0 1544.99 1368.91
  C 1546.68 1363.95 1548.01 1358.40 1550.19 1353.01
  Q 1560.40 1327.86 1577.97 1308.26
  Q 1602.00 1281.45 1637.52 1278.56
  Q 1647.13 1277.78 1657.00 1280.42
  C 1662.58 1281.90 1666.71 1281.69 1670.99 1278.39
  C 1674.94 1275.34 1678.15 1273.94 1682.38 1273.80
  C 1688.26 1273.60 1693.73 1276.14 1693.41 1282.57
  Q 1693.32 1284.26 1691.55 1288.72
  Q 1683.41 1309.25 1679.35 1320.61
  Q 1656.09 1385.76 1647.42 1410.93
  Q 1647.02 1412.09 1646.74 1414.23
  A 2.10 2.10 0.0 0 0 1648.52 1416.58
  C 1652.57 1417.17 1660.68 1410.79 1664.23 1407.46
  C 1688.63 1384.60 1707.37 1355.91 1725.03 1327.56
  Q 1726.01 1325.99 1729.01 1325.05
  Q 1735.19 1323.10 1739.32 1326.22
  Q 1742.65 1328.74 1740.19 1332.71
  C 1727.70 1352.95 1715.59 1373.15 1700.68 1391.95
  Q 1682.37 1415.03 1656.94 1431.69
  C 1640.18 1442.67 1621.14 1453.52 1602.25 1464.22
  C 1581.54 1475.96 1563.29 1488.73 1546.75 1504.97
  C 1541.80 1509.83 1537.71 1517.69 1540.79 1524.43
  C 1544.39 1532.30 1555.48 1530.98 1561.86 1528.32
  C 1573.86 1523.34 1583.37 1512.37 1590.42 1501.43
  Q 1599.27 1487.72 1605.60 1472.61
  C 1608.92 1464.67 1619.74 1460.33 1627.24 1460.51
  C 1631.03 1460.60 1631.37 1463.65 1630.08 1466.83
  C 1616.24 1501.11 1594.60 1536.49 1556.17 1545.59
  Q 1545.51 1548.12 1535.58 1545.70
  C 1522.87 1542.62 1514.87 1531.00 1517.83 1517.95
  C 1520.35 1506.87 1528.00 1497.70 1536.30 1490.30
  C 1553.98 1474.54 1573.83 1461.70 1594.86 1450.14
  C 1601.79 1446.34 1608.18 1442.37 1612.28 1436.79
  C 1614.02 1434.43 1618.36 1425.16 1617.68 1421.10
  A 2.59 2.57 -4.8 0 0 1615.12 1418.95
  C 1609.39 1418.95 1603.78 1422.62 1598.88 1424.87
  C 1575.23 1435.76 1546.86 1429.51 1542.72 1400.08
  A 0.35 0.35 0.0 0 0 1542.10 1399.91
  Q 1532.12 1412.84 1519.84 1424.09
  C 1509.38 1433.68 1498.16 1440.98 1483.79 1442.92
  C 1464.91 1445.47 1453.66 1435.54 1456.78 1416.02
  Q 1458.15 1407.39 1462.76 1393.22
  C 1469.16 1373.56 1475.97 1358.61 1484.92 1336.16
  C 1488.82 1326.38 1479.62 1322.70 1471.95 1323.59
  C 1457.33 1325.29 1444.48 1334.58 1434.58 1345.15
  Q 1420.07 1360.66 1409.29 1381.02
  Q 1403.76 1391.46 1395.87 1414.41
  Q 1387.92 1437.53 1383.03 1451.29
  Q 1380.47 1458.50 1373.27 1461.02
  C 1368.34 1462.74 1360.29 1463.09 1356.99 1458.57
  C 1354.20 1454.74 1357.82 1448.97 1358.86 1445.05
  Z
  M 1573.54 1408.17
  C 1581.15 1415.30 1592.83 1410.96 1600.69 1405.77
  Q 1608.25 1400.78 1614.58 1393.99
  Q 1641.79 1364.81 1647.26 1324.83
  C 1648.64 1314.70 1647.97 1302.78 1636.69 1299.11
  C 1633.09 1297.95 1628.25 1298.03 1624.73 1298.95
  Q 1608.15 1303.29 1596.93 1316.58
  Q 1588.24 1326.85 1581.23 1341.14
  Q 1570.19 1363.66 1567.96 1384.10
  C 1567.12 1391.81 1567.74 1402.74 1573.54 1408.17
  Z
  M 938.21 1512.56
  C 946.19 1520.20 958.61 1515.75 967.00 1510.35
  Q 975.06 1505.16 981.85 1498.04
  Q 1011.02 1467.47 1017.29 1425.19
  C 1018.88 1414.48 1018.31 1401.85 1006.41 1397.83
  C 1002.61 1396.55 997.49 1396.58 993.75 1397.51
  Q 976.14 1401.91 964.09 1415.85
  Q 954.76 1426.62 947.17 1441.67
  Q 935.20 1465.38 932.59 1487.00
  C 931.61 1495.16 932.14 1506.74 938.21 1512.56
  Z
  M 790.74 1482.47
  C 793.14 1485.47 799.33 1484.36 802.64 1483.28
  C 822.81 1476.68 842.87 1466.74 856.78 1451.03
  C 862.16 1444.96 872.10 1430.08 865.83 1422.26
  C 859.56 1414.44 842.88 1420.91 835.78 1424.84
  C 817.42 1435.00 803.36 1452.42 792.54 1470.68
  C 790.76 1473.67 788.33 1479.47 790.74 1482.47
  Z"
/>
<ellipse fill="#ed0080" cx="0.00" cy="0.00" transform="translate(1344.29,1287.54) rotate(-19.7)" rx="16.97" ry="12.46"/>
<path fill="#ed0080" d="
  M 342.93 1371.58
  Q 342.62 1372.68 342.58 1373.05
  C 340.59 1394.24 351.82 1414.43 370.24 1425.00
  C 383.85 1432.80 399.31 1436.49 415.06 1437.65
  C 461.71 1441.08 506.47 1426.78 547.33 1405.34
  Q 571.95 1392.41 592.92 1374.44
  Q 608.52 1361.08 618.89 1344.47
  C 625.00 1334.70 631.08 1320.56 624.00 1310.31
  C 617.71 1301.20 603.18 1301.48 593.69 1302.95
  Q 579.06 1305.21 564.22 1313.30
  Q 541.91 1325.45 521.87 1343.90
  Q 486.49 1376.48 459.37 1416.04
  Q 454.19 1423.59 451.60 1425.53
  Q 446.60 1429.26 440.25 1430.19
  C 435.05 1430.95 428.04 1429.74 424.88 1425.49
  C 421.70 1421.20 423.90 1417.15 426.85 1412.81
  Q 456.28 1369.58 493.90 1334.17
  Q 515.98 1313.38 540.79 1297.80
  C 561.35 1284.89 585.38 1275.40 610.18 1275.10
  C 628.28 1274.88 646.82 1281.33 654.33 1298.70
  C 664.56 1322.33 645.40 1352.65 630.02 1369.80
  C 613.36 1388.39 593.69 1403.62 572.02 1416.52
  Q 540.45 1435.32 506.33 1447.57
  Q 481.85 1456.36 455.03 1461.09
  C 444.69 1462.92 433.16 1468.88 425.63 1477.24
  Q 422.48 1480.74 418.20 1488.80
  C 405.64 1512.50 395.78 1536.96 392.96 1562.97
  Q 392.11 1570.78 392.92 1580.11
  C 395.36 1608.02 414.78 1625.02 441.77 1627.77
  Q 457.00 1629.33 473.93 1625.63
  C 499.60 1620.03 523.14 1603.14 540.08 1582.63
  C 553.08 1566.89 568.32 1539.29 557.49 1518.84
  C 556.10 1516.21 553.19 1513.40 552.07 1511.19
  C 549.23 1505.62 551.31 1500.45 555.66 1496.37
  C 562.57 1489.89 574.63 1486.80 582.81 1493.60
  Q 585.25 1495.64 587.15 1499.81
  C 596.40 1520.20 592.77 1542.99 583.22 1563.00
  C 564.28 1602.68 525.92 1632.42 485.14 1645.93
  C 450.95 1657.25 402.22 1659.59 375.74 1629.48
  C 357.34 1608.54 355.87 1580.16 360.82 1553.49
  C 364.92 1531.39 372.63 1509.59 382.41 1489.21
  Q 386.23 1481.24 386.42 1476.96
  C 387.13 1461.25 371.22 1454.38 358.77 1449.48
  Q 353.83 1447.54 347.13 1443.38
  C 324.43 1429.28 313.60 1406.08 313.59 1379.73
  C 313.58 1370.68 322.63 1364.67 330.80 1364.46
  Q 337.42 1364.29 342.17 1368.78
  A 2.80 2.79 29.8 0 1 342.93 1371.58
  Z"
/>
</svg>
